<svg xmlns="http://www.w3.org/2000/svg" xmlns:xlink="http://www.w3.org/1999/xlink" width="500" zoomAndPan="magnify" viewBox="0 0 375 374.999991" height="500" preserveAspectRatio="xMidYMid meet" version="1.0"><defs><clipPath id="e4a9e1bb1a"><path d="M 16.363281 0 L 358.363281 0 L 358.363281 375 L 16.363281 375 Z M 16.363281 0 " clip-rule="nonzero"/></clipPath></defs><g clip-path="url(#e4a9e1bb1a)"><path fill="#000000" d="M 342.734375 65.21875 L 269.285156 65.21875 L 269.285156 53.726562 C 269.285156 51.964844 269.195312 50.210938 269.019531 48.460938 C 268.84375 46.710938 268.585938 44.972656 268.238281 43.25 C 267.894531 41.523438 267.464844 39.820312 266.953125 38.140625 C 266.441406 36.457031 265.847656 34.804688 265.171875 33.179688 C 264.496094 31.554688 263.742188 29.96875 262.914062 28.417969 C 262.082031 26.867188 261.175781 25.359375 260.199219 23.898438 C 259.21875 22.433594 258.171875 21.023438 257.054688 19.664062 C 255.9375 18.304688 254.757812 17.003906 253.511719 15.761719 C 252.265625 14.515625 250.964844 13.335938 249.601562 12.222656 C 248.242188 11.105469 246.828125 10.058594 245.367188 9.082031 C 243.902344 8.105469 242.394531 7.199219 240.84375 6.371094 C 239.289062 5.539062 237.699219 4.789062 236.074219 4.113281 C 234.449219 3.4375 232.792969 2.847656 231.109375 2.335938 C 229.425781 1.820312 227.71875 1.394531 225.992188 1.046875 C 224.265625 0.703125 222.527344 0.441406 220.777344 0.269531 C 219.023438 0.09375 217.269531 0.00390625 215.507812 0.00390625 L 159.851562 0.00390625 C 158.089844 0.00390625 156.335938 0.09375 154.582031 0.269531 C 152.832031 0.441406 151.089844 0.703125 149.363281 1.046875 C 147.640625 1.394531 145.933594 1.820312 144.25 2.335938 C 142.566406 2.847656 140.910156 3.4375 139.285156 4.113281 C 137.65625 4.789062 136.066406 5.539062 134.515625 6.371094 C 132.964844 7.199219 131.457031 8.105469 129.992188 9.082031 C 128.527344 10.058594 127.117188 11.105469 125.757812 12.222656 C 124.394531 13.335938 123.09375 14.515625 121.847656 15.761719 C 120.601562 17.003906 119.421875 18.304688 118.304688 19.664062 C 117.1875 21.023438 116.140625 22.433594 115.160156 23.898438 C 114.183594 25.359375 113.277344 26.867188 112.445312 28.417969 C 111.617188 29.96875 110.863281 31.554688 110.1875 33.179688 C 109.511719 34.804688 108.917969 36.457031 108.40625 38.140625 C 107.894531 39.820312 107.464844 41.523438 107.117188 43.25 C 106.773438 44.972656 106.511719 46.710938 106.339844 48.460938 C 106.164062 50.210938 106.074219 51.964844 106.070312 53.726562 L 106.070312 65.21875 L 32.625 65.21875 C 32.089844 65.21875 31.558594 65.246094 31.027344 65.296875 C 30.492188 65.351562 29.964844 65.429688 29.441406 65.53125 C 28.917969 65.636719 28.398438 65.765625 27.886719 65.921875 C 27.375 66.074219 26.875 66.253906 26.378906 66.460938 C 25.886719 66.664062 25.402344 66.890625 24.933594 67.144531 C 24.460938 67.394531 24.003906 67.671875 23.558594 67.964844 C 23.113281 68.261719 22.683594 68.582031 22.273438 68.917969 C 21.859375 69.257812 21.460938 69.617188 21.085938 69.996094 C 20.707031 70.371094 20.347656 70.765625 20.007812 71.179688 C 19.671875 71.59375 19.351562 72.019531 19.054688 72.464844 C 18.757812 72.910156 18.484375 73.367188 18.230469 73.835938 C 17.980469 74.308594 17.75 74.789062 17.546875 75.285156 C 17.34375 75.777344 17.164062 76.28125 17.007812 76.789062 C 16.851562 77.300781 16.722656 77.820312 16.617188 78.34375 C 16.511719 78.867188 16.433594 79.394531 16.382812 79.925781 C 16.332031 80.457031 16.304688 80.988281 16.304688 81.523438 C 16.304688 82.058594 16.332031 82.589844 16.382812 83.121094 C 16.433594 83.652344 16.511719 84.179688 16.617188 84.703125 C 16.722656 85.226562 16.851562 85.746094 17.007812 86.257812 C 17.164062 86.765625 17.34375 87.269531 17.546875 87.761719 C 17.75 88.253906 17.980469 88.738281 18.230469 89.207031 C 18.484375 89.679688 18.757812 90.136719 19.054688 90.582031 C 19.351562 91.023438 19.671875 91.453125 20.007812 91.867188 C 20.347656 92.277344 20.707031 92.675781 21.085938 93.050781 C 21.460938 93.429688 21.859375 93.789062 22.273438 94.125 C 22.683594 94.464844 23.113281 94.78125 23.558594 95.078125 C 24.003906 95.375 24.460938 95.652344 24.933594 95.902344 C 25.402344 96.152344 25.886719 96.382812 26.378906 96.585938 C 26.875 96.789062 27.375 96.96875 27.886719 97.125 C 28.398438 97.28125 28.917969 97.410156 29.441406 97.515625 C 29.964844 97.617188 30.492188 97.695312 31.027344 97.75 C 31.558594 97.800781 32.089844 97.828125 32.625 97.828125 L 57.109375 97.828125 L 57.109375 321.03125 C 57.109375 322.800781 57.199219 324.5625 57.375 326.324219 C 57.550781 328.082031 57.8125 329.828125 58.160156 331.5625 C 58.507812 333.296875 58.941406 335.011719 59.457031 336.703125 C 59.972656 338.394531 60.570312 340.054688 61.25 341.6875 C 61.929688 343.320312 62.6875 344.917969 63.523438 346.476562 C 64.359375 348.035156 65.269531 349.550781 66.253906 351.019531 C 67.238281 352.488281 68.292969 353.90625 69.417969 355.273438 C 70.542969 356.636719 71.730469 357.945312 72.984375 359.195312 C 74.238281 360.445312 75.546875 361.628906 76.917969 362.75 C 78.285156 363.871094 79.707031 364.925781 81.179688 365.90625 C 82.652344 366.886719 84.167969 367.792969 85.730469 368.628906 C 87.292969 369.460938 88.890625 370.214844 90.527344 370.890625 C 92.164062 371.566406 93.828125 372.160156 95.523438 372.675781 C 97.214844 373.1875 98.929688 373.617188 100.667969 373.960938 C 102.40625 374.304688 104.152344 374.566406 105.914062 374.738281 C 107.675781 374.910156 109.441406 374.996094 111.214844 374.996094 L 264.226562 374.996094 C 265.996094 374.996094 267.757812 374.90625 269.519531 374.730469 C 271.28125 374.554688 273.027344 374.292969 274.761719 373.945312 C 276.496094 373.601562 278.207031 373.167969 279.898438 372.65625 C 281.59375 372.140625 283.253906 371.546875 284.886719 370.867188 C 286.523438 370.191406 288.117188 369.433594 289.675781 368.601562 C 291.238281 367.765625 292.75 366.859375 294.222656 365.878906 C 295.691406 364.894531 297.109375 363.84375 298.476562 362.722656 C 299.84375 361.601562 301.152344 360.417969 302.402344 359.167969 C 303.652344 357.917969 304.839844 356.609375 305.964844 355.246094 C 307.085938 353.878906 308.136719 352.460938 309.121094 350.992188 C 310.105469 349.523438 311.011719 348.011719 311.847656 346.453125 C 312.683594 344.898438 313.4375 343.300781 314.117188 341.671875 C 314.792969 340.039062 315.390625 338.378906 315.90625 336.6875 C 316.421875 334.996094 316.851562 333.285156 317.199219 331.554688 C 317.546875 329.820312 317.808594 328.074219 317.984375 326.316406 C 318.160156 324.558594 318.25 322.796875 318.25 321.03125 L 318.25 97.828125 L 342.734375 97.828125 C 343.265625 97.828125 343.800781 97.800781 344.332031 97.75 C 344.863281 97.695312 345.394531 97.617188 345.917969 97.515625 C 346.441406 97.410156 346.960938 97.28125 347.472656 97.125 C 347.980469 96.96875 348.484375 96.789062 348.980469 96.585938 C 349.472656 96.382812 349.957031 96.152344 350.425781 95.902344 C 350.898438 95.652344 351.355469 95.375 351.800781 95.078125 C 352.246094 94.78125 352.675781 94.464844 353.085938 94.125 C 353.5 93.789062 353.894531 93.429688 354.273438 93.050781 C 354.652344 92.675781 355.011719 92.277344 355.347656 91.867188 C 355.6875 91.453125 356.007812 91.023438 356.304688 90.582031 C 356.601562 90.136719 356.875 89.679688 357.128906 89.207031 C 357.378906 88.738281 357.605469 88.253906 357.8125 87.761719 C 358.015625 87.269531 358.195312 86.765625 358.351562 86.257812 C 358.507812 85.746094 358.636719 85.226562 358.742188 84.703125 C 358.84375 84.179688 358.921875 83.652344 358.976562 83.121094 C 359.027344 82.589844 359.054688 82.058594 359.054688 81.523438 C 359.054688 80.988281 359.027344 80.457031 358.976562 79.925781 C 358.921875 79.394531 358.84375 78.867188 358.742188 78.34375 C 358.636719 77.820312 358.507812 77.300781 358.351562 76.789062 C 358.195312 76.28125 358.015625 75.777344 357.8125 75.285156 C 357.605469 74.789062 357.378906 74.308594 357.128906 73.835938 C 356.875 73.367188 356.601562 72.910156 356.304688 72.464844 C 356.007812 72.019531 355.6875 71.59375 355.347656 71.179688 C 355.011719 70.765625 354.652344 70.371094 354.273438 69.996094 C 353.894531 69.617188 353.5 69.257812 353.085938 68.917969 C 352.675781 68.582031 352.246094 68.261719 351.800781 67.964844 C 351.355469 67.671875 350.898438 67.394531 350.425781 67.144531 C 349.957031 66.890625 349.472656 66.664062 348.980469 66.460938 C 348.484375 66.253906 347.980469 66.074219 347.472656 65.921875 C 346.960938 65.765625 346.441406 65.636719 345.917969 65.53125 C 345.394531 65.429688 344.863281 65.351562 344.332031 65.296875 C 343.800781 65.246094 343.265625 65.21875 342.734375 65.21875 Z M 138.714844 53.726562 C 138.714844 53.03125 138.75 52.34375 138.816406 51.65625 C 138.882812 50.96875 138.984375 50.285156 139.121094 49.605469 C 139.257812 48.925781 139.425781 48.257812 139.625 47.59375 C 139.824219 46.933594 140.058594 46.285156 140.324219 45.644531 C 140.589844 45.003906 140.882812 44.382812 141.210938 43.773438 C 141.535156 43.160156 141.890625 42.570312 142.277344 41.996094 C 142.660156 41.417969 143.074219 40.863281 143.511719 40.332031 C 143.953125 39.796875 144.417969 39.285156 144.90625 38.792969 C 145.394531 38.304688 145.90625 37.84375 146.441406 37.402344 C 146.976562 36.964844 147.53125 36.554688 148.109375 36.167969 C 148.683594 35.785156 149.277344 35.429688 149.886719 35.105469 C 150.5 34.777344 151.125 34.484375 151.761719 34.21875 C 152.402344 33.953125 153.054688 33.71875 153.714844 33.519531 C 154.378906 33.320312 155.050781 33.152344 155.726562 33.015625 C 156.40625 32.882812 157.089844 32.78125 157.78125 32.710938 C 158.46875 32.644531 159.160156 32.609375 159.851562 32.609375 L 215.507812 32.609375 C 216.199219 32.609375 216.890625 32.644531 217.578125 32.710938 C 218.269531 32.78125 218.953125 32.882812 219.628906 33.015625 C 220.308594 33.152344 220.980469 33.320312 221.644531 33.519531 C 222.304688 33.71875 222.957031 33.953125 223.597656 34.21875 C 224.234375 34.484375 224.859375 34.777344 225.472656 35.105469 C 226.082031 35.429688 226.675781 35.785156 227.25 36.167969 C 227.824219 36.554688 228.382812 36.964844 228.917969 37.402344 C 229.449219 37.84375 229.964844 38.304688 230.453125 38.792969 C 230.941406 39.285156 231.40625 39.796875 231.847656 40.332031 C 232.285156 40.863281 232.695312 41.417969 233.082031 41.996094 C 233.464844 42.570312 233.820312 43.160156 234.148438 43.773438 C 234.472656 44.382812 234.769531 45.003906 235.035156 45.644531 C 235.300781 46.285156 235.53125 46.933594 235.734375 47.59375 C 235.933594 48.257812 236.101562 48.925781 236.238281 49.605469 C 236.371094 50.285156 236.472656 50.96875 236.542969 51.65625 C 236.609375 52.34375 236.644531 53.03125 236.644531 53.726562 L 236.644531 65.21875 L 138.714844 65.21875 Z M 285.609375 321.03125 C 285.605469 321.730469 285.570312 322.425781 285.496094 323.121094 C 285.425781 323.816406 285.320312 324.507812 285.183594 325.191406 C 285.046875 325.875 284.875 326.554688 284.667969 327.222656 C 284.464844 327.890625 284.226562 328.546875 283.957031 329.191406 C 283.691406 329.835938 283.390625 330.46875 283.058594 331.082031 C 282.730469 331.699219 282.367188 332.296875 281.980469 332.878906 C 281.589844 333.457031 281.171875 334.019531 280.730469 334.558594 C 280.285156 335.097656 279.816406 335.617188 279.320312 336.109375 C 278.828125 336.605469 278.308594 337.074219 277.769531 337.515625 C 277.230469 337.960938 276.667969 338.375 276.085938 338.765625 C 275.503906 339.152344 274.90625 339.511719 274.289062 339.84375 C 273.671875 340.171875 273.042969 340.472656 272.394531 340.742188 C 271.75 341.011719 271.09375 341.246094 270.425781 341.453125 C 269.753906 341.65625 269.078125 341.828125 268.390625 341.964844 C 267.707031 342.105469 267.015625 342.207031 266.320312 342.277344 C 265.625 342.351562 264.925781 342.386719 264.226562 342.390625 L 111.214844 342.390625 C 110.511719 342.390625 109.8125 342.355469 109.113281 342.285156 C 108.417969 342.21875 107.722656 342.117188 107.035156 341.980469 C 106.347656 341.84375 105.667969 341.671875 104.996094 341.46875 C 104.328125 341.269531 103.667969 341.03125 103.019531 340.765625 C 102.371094 340.496094 101.738281 340.199219 101.117188 339.871094 C 100.5 339.539062 99.898438 339.179688 99.316406 338.792969 C 98.730469 338.40625 98.167969 337.988281 97.625 337.546875 C 97.082031 337.101562 96.5625 336.632812 96.066406 336.136719 C 95.570312 335.644531 95.097656 335.125 94.652344 334.585938 C 94.207031 334.046875 93.789062 333.484375 93.394531 332.902344 C 93.003906 332.320312 92.644531 331.722656 92.3125 331.105469 C 91.980469 330.488281 91.679688 329.855469 91.40625 329.210938 C 91.136719 328.5625 90.898438 327.90625 90.695312 327.238281 C 90.488281 326.566406 90.316406 325.886719 90.175781 325.203125 C 90.039062 324.515625 89.933594 323.824219 89.863281 323.125 C 89.789062 322.429688 89.753906 321.730469 89.75 321.03125 L 89.75 97.828125 L 285.609375 97.828125 Z M 285.609375 321.03125 " fill-opacity="1" fill-rule="nonzero"/></g><path fill="#000000" d="M 146.875 134.429688 C 146.339844 134.429688 145.808594 134.457031 145.277344 134.507812 C 144.742188 134.5625 144.214844 134.640625 143.691406 134.742188 C 143.167969 134.847656 142.648438 134.976562 142.136719 135.132812 C 141.625 135.289062 141.125 135.46875 140.628906 135.671875 C 140.136719 135.875 139.652344 136.105469 139.183594 136.355469 C 138.710938 136.605469 138.253906 136.882812 137.808594 137.179688 C 137.363281 137.472656 136.933594 137.792969 136.523438 138.132812 C 136.109375 138.46875 135.710938 138.828125 135.335938 139.207031 C 134.957031 139.582031 134.597656 139.976562 134.257812 140.390625 C 133.921875 140.804688 133.601562 141.230469 133.304688 141.675781 C 133.007812 142.121094 132.734375 142.578125 132.480469 143.046875 C 132.230469 143.519531 132 144 131.796875 144.496094 C 131.59375 144.988281 131.414062 145.492188 131.257812 146 C 131.101562 146.511719 130.972656 147.03125 130.867188 147.554688 C 130.761719 148.078125 130.683594 148.605469 130.632812 149.136719 C 130.582031 149.667969 130.554688 150.199219 130.554688 150.734375 L 130.554688 297.472656 C 130.554688 298.003906 130.582031 298.539062 130.632812 299.070312 C 130.683594 299.601562 130.761719 300.128906 130.867188 300.652344 C 130.972656 301.175781 131.101562 301.691406 131.257812 302.203125 C 131.414062 302.714844 131.59375 303.21875 131.796875 303.710938 C 132 304.203125 132.230469 304.6875 132.480469 305.15625 C 132.734375 305.628906 133.007812 306.085938 133.304688 306.53125 C 133.601562 306.972656 133.921875 307.402344 134.257812 307.816406 C 134.597656 308.226562 134.957031 308.621094 135.335938 309 C 135.710938 309.378906 136.109375 309.734375 136.523438 310.074219 C 136.933594 310.414062 137.363281 310.730469 137.808594 311.027344 C 138.253906 311.324219 138.710938 311.597656 139.183594 311.851562 C 139.652344 312.101562 140.136719 312.328125 140.628906 312.535156 C 141.125 312.738281 141.625 312.917969 142.136719 313.074219 C 142.648438 313.226562 143.167969 313.359375 143.691406 313.460938 C 144.214844 313.566406 144.742188 313.644531 145.277344 313.695312 C 145.808594 313.75 146.339844 313.777344 146.875 313.777344 C 147.410156 313.777344 147.945312 313.75 148.476562 313.695312 C 149.007812 313.644531 149.535156 313.566406 150.058594 313.460938 C 150.585938 313.359375 151.101562 313.226562 151.613281 313.074219 C 152.125 312.917969 152.628906 312.738281 153.121094 312.535156 C 153.617188 312.328125 154.097656 312.101562 154.570312 311.851562 C 155.042969 311.597656 155.5 311.324219 155.945312 311.027344 C 156.386719 310.730469 156.816406 310.414062 157.230469 310.074219 C 157.644531 309.734375 158.039062 309.378906 158.417969 309 C 158.792969 308.621094 159.152344 308.226562 159.492188 307.816406 C 159.832031 307.402344 160.148438 306.972656 160.445312 306.53125 C 160.742188 306.085938 161.019531 305.628906 161.269531 305.15625 C 161.523438 304.6875 161.75 304.203125 161.953125 303.710938 C 162.160156 303.21875 162.339844 302.714844 162.496094 302.203125 C 162.648438 301.691406 162.78125 301.175781 162.882812 300.652344 C 162.988281 300.128906 163.066406 299.601562 163.117188 299.070312 C 163.171875 298.539062 163.195312 298.003906 163.195312 297.472656 L 163.195312 150.734375 C 163.195312 150.199219 163.171875 149.667969 163.117188 149.136719 C 163.066406 148.605469 162.988281 148.078125 162.882812 147.554688 C 162.78125 147.03125 162.648438 146.511719 162.496094 146 C 162.339844 145.492188 162.160156 144.988281 161.953125 144.496094 C 161.75 144 161.523438 143.519531 161.269531 143.046875 C 161.019531 142.578125 160.742188 142.121094 160.445312 141.675781 C 160.148438 141.230469 159.832031 140.804688 159.492188 140.390625 C 159.152344 139.976562 158.792969 139.582031 158.417969 139.207031 C 158.039062 138.828125 157.644531 138.46875 157.230469 138.132812 C 156.816406 137.792969 156.386719 137.472656 155.945312 137.179688 C 155.5 136.882812 155.042969 136.605469 154.570312 136.355469 C 154.097656 136.101562 153.617188 135.875 153.121094 135.671875 C 152.628906 135.464844 152.125 135.285156 151.613281 135.132812 C 151.101562 134.976562 150.585938 134.847656 150.058594 134.742188 C 149.535156 134.640625 149.007812 134.5625 148.476562 134.507812 C 147.945312 134.457031 147.410156 134.429688 146.875 134.429688 Z M 146.875 134.429688 " fill-opacity="1" fill-rule="nonzero"/><path fill="#000000" d="M 228.484375 134.429688 C 227.949219 134.429688 227.414062 134.457031 226.882812 134.507812 C 226.351562 134.5625 225.824219 134.640625 225.296875 134.742188 C 224.773438 134.847656 224.257812 134.976562 223.746094 135.132812 C 223.234375 135.289062 222.730469 135.46875 222.238281 135.671875 C 221.742188 135.875 221.261719 136.105469 220.789062 136.355469 C 220.316406 136.605469 219.859375 136.882812 219.414062 137.179688 C 218.972656 137.472656 218.542969 137.792969 218.128906 138.132812 C 217.714844 138.46875 217.320312 138.828125 216.941406 139.207031 C 216.5625 139.582031 216.207031 139.976562 215.867188 140.390625 C 215.527344 140.804688 215.210938 141.230469 214.914062 141.675781 C 214.613281 142.121094 214.339844 142.578125 214.089844 143.046875 C 213.835938 143.519531 213.609375 144 213.402344 144.496094 C 213.199219 144.988281 213.019531 145.492188 212.863281 146 C 212.710938 146.511719 212.578125 147.03125 212.476562 147.554688 C 212.371094 148.078125 212.292969 148.605469 212.238281 149.136719 C 212.1875 149.667969 212.160156 150.199219 212.160156 150.734375 L 212.160156 297.472656 C 212.160156 298.003906 212.1875 298.539062 212.238281 299.070312 C 212.292969 299.601562 212.371094 300.128906 212.476562 300.652344 C 212.578125 301.175781 212.710938 301.691406 212.863281 302.203125 C 213.019531 302.714844 213.199219 303.21875 213.402344 303.710938 C 213.609375 304.203125 213.835938 304.6875 214.089844 305.15625 C 214.339844 305.628906 214.613281 306.085938 214.910156 306.53125 C 215.210938 306.972656 215.527344 307.402344 215.867188 307.816406 C 216.207031 308.226562 216.5625 308.621094 216.941406 309 C 217.320312 309.378906 217.714844 309.734375 218.128906 310.074219 C 218.542969 310.414062 218.972656 310.730469 219.414062 311.027344 C 219.859375 311.324219 220.316406 311.597656 220.789062 311.851562 C 221.261719 312.101562 221.742188 312.328125 222.238281 312.535156 C 222.730469 312.738281 223.234375 312.917969 223.746094 313.074219 C 224.257812 313.226562 224.773438 313.359375 225.296875 313.460938 C 225.824219 313.566406 226.351562 313.644531 226.882812 313.695312 C 227.414062 313.75 227.949219 313.777344 228.484375 313.777344 C 229.015625 313.777344 229.550781 313.75 230.082031 313.695312 C 230.613281 313.644531 231.144531 313.566406 231.667969 313.460938 C 232.191406 313.359375 232.710938 313.226562 233.222656 313.074219 C 233.730469 312.917969 234.234375 312.738281 234.730469 312.535156 C 235.222656 312.328125 235.707031 312.101562 236.175781 311.851562 C 236.648438 311.597656 237.105469 311.324219 237.550781 311.027344 C 237.996094 310.730469 238.425781 310.414062 238.835938 310.074219 C 239.25 309.734375 239.644531 309.378906 240.023438 309 C 240.402344 308.621094 240.761719 308.226562 241.097656 307.816406 C 241.4375 307.402344 241.757812 306.972656 242.054688 306.53125 C 242.351562 306.085938 242.625 305.628906 242.878906 305.15625 C 243.128906 304.6875 243.355469 304.203125 243.5625 303.710938 C 243.765625 303.21875 243.945312 302.714844 244.101562 302.203125 C 244.257812 301.691406 244.386719 301.175781 244.492188 300.652344 C 244.59375 300.128906 244.671875 299.601562 244.726562 299.070312 C 244.777344 298.539062 244.804688 298.003906 244.804688 297.472656 L 244.804688 150.734375 C 244.804688 150.199219 244.777344 149.667969 244.726562 149.136719 C 244.671875 148.605469 244.59375 148.078125 244.492188 147.554688 C 244.386719 147.03125 244.257812 146.511719 244.101562 146 C 243.945312 145.492188 243.765625 144.988281 243.5625 144.496094 C 243.355469 144 243.128906 143.519531 242.878906 143.046875 C 242.625 142.578125 242.351562 142.121094 242.054688 141.675781 C 241.757812 141.230469 241.4375 140.804688 241.097656 140.390625 C 240.761719 139.976562 240.402344 139.582031 240.023438 139.207031 C 239.644531 138.828125 239.25 138.46875 238.835938 138.132812 C 238.425781 137.792969 237.996094 137.472656 237.550781 137.179688 C 237.105469 136.882812 236.648438 136.605469 236.175781 136.355469 C 235.707031 136.101562 235.222656 135.875 234.730469 135.671875 C 234.234375 135.464844 233.730469 135.285156 233.222656 135.132812 C 232.710938 134.976562 232.191406 134.847656 231.667969 134.742188 C 231.144531 134.640625 230.613281 134.5625 230.082031 134.507812 C 229.550781 134.457031 229.015625 134.429688 228.484375 134.429688 Z M 228.484375 134.429688 " fill-opacity="1" fill-rule="nonzero"/></svg>